<?xml version="1.0" encoding="UTF-8" standalone="no"?>
<svg
   version="1.1"
   id="svg1"
   sodipodi:docname="t.svg"
   inkscape:version="1.3.2 (091e20ef0f, 2023-11-25)"
   xmlns:inkscape="http://www.inkscape.org/namespaces/inkscape"
   xmlns:sodipodi="http://sodipodi.sourceforge.net/DTD/sodipodi-0.dtd"
   xmlns="http://www.w3.org/2000/svg"
   xmlns:svg="http://www.w3.org/2000/svg">
  <defs
     id="defs1" />
  <sodipodi:namedview
     id="namedview1"
     pagecolor="#ffffff"
     bordercolor="#000000"
     borderopacity="0.25"
     inkscape:showpageshadow="2"
     inkscape:pageopacity="0.0"
     inkscape:pagecheckerboard="0"
     inkscape:deskcolor="#d1d1d1"
     inkscape:zoom="0.46166667"
     inkscape:cx="-223.10469"
     inkscape:cy="300"
     inkscape:window-width="1920"
     inkscape:window-height="939"
     inkscape:window-x="0"
     inkscape:window-y="0"
     inkscape:window-maximized="1"
     inkscape:current-layer="svg1" />
  <path
     d="M.0413 255.8C.1219 132.2 100.3 32 224 32C347.7 32 448 132.3 448 256C448 379.7 347.8 479.9 224.1 480H50.93C22.84 480 .0832 457.3 .0416 429.2H0V255.8H.0413zM342.6 192.7C342.6 153 307 124.2 269.4 124.2C234.5 124.2 203.6 150.5 199.3 184.1C199.1 187.9 198.9 189.1 198.9 192.6C198.8 213.7 198.9 235.4 198.1 257C199 283.1 199.1 309.1 198.1 333.6C198.1 360.7 178.7 379.1 153.4 379.1C128.1 379.1 107.6 358.9 107.6 333.6C108.1 305.9 130.2 288.3 156.1 287.5H156.3L182.6 287.3V250L156.3 250.2C109.2 249.8 71.72 286.7 70.36 333.6C70.36 379.2 107.9 416.5 153.4 416.5C196.4 416.5 232.1 382.9 236 340.9L236.2 287.4L268.8 287.1C294.1 287.3 293.8 249.3 268.6 249.8L236.2 250.1C236.2 243.7 236.3 237.3 236.3 230.9C236.4 218.2 236.4 205.5 236.2 192.7C236.3 176.2 252 161.5 269.4 161.5C286.9 161.5 305.3 170.2 305.3 192.7C305.3 195.9 305.2 197.8 305 199C303.1 209.5 310.2 219.4 320.7 220.9C331.3 222.4 340.9 214.8 341.9 204.3C342.5 200.1 342.6 196.4 342.6 192.7H342.6z"
     id="path1"
     style="fill:#ffffff;fill-opacity:1" />
</svg>
