<?xml version="1.0" encoding="UTF-8"?>
<svg id="Layer_1" data-name="Layer 1" xmlns="http://www.w3.org/2000/svg" viewBox="0 0 114.45 114.45">
  <defs>
    <style>
      .cls-1 {
        fill: #fff;
      }

      .cls-2 {
        fill: #2e3192;
      }
    </style>
  </defs>
  <path class="cls-2" d="m57.23,0C25.62,0,.03,25.6.01,57.18h-.01v44.3h.01c.01,7.18,5.82,12.98,13,12.98h44.24c31.6-.03,57.2-25.62,57.2-57.23S88.83,0,57.23,0Z"/>
  <path class="cls-1" d="m84.66,62.19c0,9.21-2.3,15.81-6.91,19.8-4.61,3.98-11.46,5.98-20.57,5.98-18.26,0-27.39-8.25-27.39-24.76v-27.48c0-5.1,4.14-9.24,9.24-9.24h0c5.1,0,9.24,4.14,9.24,9.24v27.73c0,3.17.74,5.51,2.21,7.04,1.47,1.53,3.81,2.29,7.04,2.29,5.77,0,8.65-3.11,8.65-9.33v-27.73c0-5.1,4.14-9.24,9.24-9.24h0c5.1,0,9.24,4.14,9.24,9.24v26.46Z"/>
</svg>